# xmcd
#
# Track frame offsets: 
#        150
#        19845
#        49622
#        73428
#        96898
#        124323
#        169950
#
# Disc length: 2634 seconds
#
# Revision: 0
# Processed by: cddbd v1.5PL3 Copyright (c) Steve Scherf et al.
# Submitted via: ExactAudioCopy v0.95a5
#
DISCID=640a4807
DTITLE=Rory Gallagher - Secret Agent in Cologne
DYEAR=2002
DGENRE=Blues
TTITLE0=Pistol Slapper Blues
TTITLE1=Too Much Alcohol
TTITLE2=Out On The Western Plain
TTITLE3=Bankers Blues
TTITLE4=Rag Mama Rag
TTITLE5=Nothing But The Devil
TTITLE6=Going To My Hometown
EXTD=
EXTT0=
EXTT1=
EXTT2=
EXTT3=
EXTT4=
EXTT5=
EXTT6=
PLAYORDER=
